<?xml version="1.0" encoding="UTF-8" standalone="no"?>
<svg
   width="16"
   height="16"
   version="1.1"
   id="svg1"
   sodipodi:docname="DynamicWindMesh.svg"
   inkscape:version="1.3.2 (091e20e, 2023-11-25, custom)"
   xml:space="preserve"
   xmlns:inkscape="http://www.inkscape.org/namespaces/inkscape"
   xmlns:sodipodi="http://sodipodi.sourceforge.net/DTD/sodipodi-0.dtd"
   xmlns="http://www.w3.org/2000/svg"
   xmlns:svg="http://www.w3.org/2000/svg"><defs
     id="defs1" /><sodipodi:namedview
     id="namedview1"
     pagecolor="#ffffff"
     bordercolor="#000000"
     borderopacity="0.25"
     inkscape:showpageshadow="2"
     inkscape:pageopacity="0.0"
     inkscape:pagecheckerboard="0"
     inkscape:deskcolor="#d1d1d1"
     inkscape:zoom="45.254834"
     inkscape:cx="7.0158251"
     inkscape:cy="9.0708542"
     inkscape:window-width="2560"
     inkscape:window-height="1377"
     inkscape:window-x="-8"
     inkscape:window-y="-8"
     inkscape:window-maximized="1"
     inkscape:current-layer="svg1" /><path
     fill="#fc7f7f"
     d="M 4.73,2 C 2.9966978,-0.57584423 -0.87271923,2.5123228 2,4.73 v 6.541 c -3.0445942,1.686427 0.9654478,5.790219 2.73,2.73 H 6 v -2 H 4.73 C 4.5547449,11.697975 4.3030253,11.446255 4,11.271 V 5.437 l 2.97025,2.985875 h 1.436 v -1.436 L 5.436,4.001 h 5.834 c 0.175255,0.3030253 0.426975,0.5547449 0.73,0.73 V 6 h 2 V 4.731 C 16.73071,2.7158492 13.285928,-0.62088876 11.27,2 Z"
     id="path1"
     style="fill:#fc7f7f;fill-opacity:1"
     sodipodi:nodetypes="cccccccccccccccccccc" /><path
     sodipodi:type="spiral"
     style="fill:none;fill-opacity:1;fill-rule:evenodd;stroke:#7fc8fc;stroke-width:1.5;stroke-dasharray:none;stroke-opacity:1"
     id="path4"
     sodipodi:cx="8.2235394"
     sodipodi:cy="8.1828957"
     sodipodi:expansion="0.74000001"
     sodipodi:revolution="1.7"
     sodipodi:radius="4.4721012"
     sodipodi:argument="-18.825317"
     sodipodi:t0="0.13"
     d="M 8.3789952,9.1587566 C 7.7071071,9.6669964 6.8030911,9.130294 6.515204,8.4550356 6.0546961,7.3748832 6.7984127,6.190412 7.8506081,5.8418508 9.2680736,5.3722863 10.745528,6.3341229 11.141503,7.7180605 11.634931,9.4425977 10.463974,11.201053 8.7742536,11.639958 6.7620807,12.16262 4.7349518,10.792279 4.2555451,8.815002 3.7554026,6.7522008 4.9847093,4.6332789 6.9450731,3.8974303"
     transform="matrix(0.87103502,0,0,0.87103502,5.3703277,5.0004783)" /></svg>
