<?xml version="1.0" encoding="UTF-8" standalone="no"?>
<svg
   width="16"
   height="16"
   version="1.1"
   id="svg1"
   sodipodi:docname="DynamicWindForce.svg"
   inkscape:version="1.3.2 (091e20e, 2023-11-25, custom)"
   xmlns:inkscape="http://www.inkscape.org/namespaces/inkscape"
   xmlns:sodipodi="http://sodipodi.sourceforge.net/DTD/sodipodi-0.dtd"
   xmlns="http://www.w3.org/2000/svg"
   xmlns:svg="http://www.w3.org/2000/svg">
  <defs
     id="defs1" />
  <sodipodi:namedview
     id="namedview1"
     pagecolor="#ffffff"
     bordercolor="#000000"
     borderopacity="0.25"
     inkscape:showpageshadow="2"
     inkscape:pageopacity="0.0"
     inkscape:pagecheckerboard="0"
     inkscape:deskcolor="#d1d1d1"
     inkscape:zoom="73.8125"
     inkscape:cx="9.3276884"
     inkscape:cy="6.9026249"
     inkscape:window-width="2560"
     inkscape:window-height="1377"
     inkscape:window-x="-8"
     inkscape:window-y="-8"
     inkscape:window-maximized="1"
     inkscape:current-layer="svg1"
     showguides="true" />
  <path
     sodipodi:type="spiral"
     style="fill:none;fill-opacity:1;fill-rule:evenodd;stroke:#7fc8fc;stroke-width:1.5;stroke-dasharray:none;stroke-opacity:1"
     id="path4"
     sodipodi:cx="8.2235394"
     sodipodi:cy="8.1828957"
     sodipodi:expansion="0.74000001"
     sodipodi:revolution="1.9120691"
     sodipodi:radius="4.8785763"
     sodipodi:argument="-18.825317"
     sodipodi:t0="0.11558131"
     d="M 8.3789986,9.1587566 C 7.7071117,9.6670002 6.8030923,9.1303 6.5152024,8.4550418 6.0546896,7.3748893 6.7984034,6.1904133 7.8505993,5.8418478 9.268066,5.3722773 10.745527,6.3341107 11.141507,7.7180496 11.634942,9.4425886 10.463989,11.201052 8.7742666,11.639963 6.7620913,12.162634 4.7349534,10.792297 4.2555389,8.8150169 3.7013994,6.5295437 5.2626424,4.2444383 7.5135614,3.726167 9.3920338,3.2936511 11.372086,4.1325196 12.437125,5.7239923"
     transform="matrix(0.94468914,0,0,0.94468914,-2.5817425,0.43414186)" />
  <rect
     style="fill:#fc7f7f;stroke:#7fc8fc;stroke-width:1.5"
     id="rect1"
     width="4.3082132"
     height="0.027095795"
     x="9.3288507"
     y="5.463748" />
  <path
     sodipodi:type="star"
     style="fill:#fc7f7f;stroke:#7fc8fc;stroke-width:1.5"
     id="path1"
     inkscape:flatsided="false"
     sodipodi:sides="3"
     sodipodi:cx="13.723963"
     sodipodi:cy="5.5004234"
     sodipodi:r1="0.5461309"
     sodipodi:r2="0.27306545"
     sodipodi:arg1="2.0899424"
     sodipodi:arg2="3.13714"
     inkscape:rounded="0"
     inkscape:randomized="0"
     d="m 13.453006,5.9745978 -0.0021,-0.4729585 -0.0021,-0.4729585 0.410647,0.2346554 0.410647,0.2346555 -0.408541,0.2383031 z"
     inkscape:transform-center-x="-0.20670494"
     inkscape:transform-center-y="0.0023016492"
     transform="matrix(1.5257354,0,0,1.8934042,-8.1794988,-4.9285071)" />
</svg>
